<svg version="1.1"
    xmlns="http://www.w3.org/2000/svg"
    x="0px" y="0px" viewBox="0 0 1000 1000" enable-background="new 0 0 1000 1000" xml:space="preserve">
    <g>
        <g transform="translate(0.000000,511.000000) scale(0.100000,-0.100000)">
            <path d="M4665.7,4895.2c-50.3-19.7-135.5-76.5-187.9-131.1c-166.1-163.9-166.1-170.4-166.1-1236.7v-935.2h-555c-476.3,0-561.5-4.4-589.9-35c-19.7-17.5-35-48.1-35-67.7c0-41.5,1581.9-2792.4,1645.3-2862.3c52.4-59,126.7-65.6,172.6-10.9c78.7,91.8,1634.4,2825.2,1634.4,2871.1c0,102.7-17.5,104.9-603.1,104.9h-552.8l-6.5,957c-6.6,1057.5-6.6,1046.6-155.1,1201.7C5118,4908.3,4864.5,4967.3,4665.7,4895.2z"/>
            <path d="M1936.7,1241.9c-50.3-26.2-327.7-386.7-946.1-1228C509.9-641.6,107.8-1200.9,101.3-1231.5c-8.7-30.6,28.4-624.9,78.7-1321.9C280.4-3919,289.2-3971.5,426.8-4185.6c87.4-139.8,295-327.7,437-397.7c257.8-126.7,91.8-122.4,4136.2-122.4c4070.6,0,3876.2-4.4,4153.6,131.1c152.9,74.3,327.7,233.8,423.9,386.7c131.1,205.4,142,273.1,242.5,1634.4c50.3,697,87.4,1293.5,78.7,1324.1c-17.5,69.9-1835.4,2388.2-1922.8,2453.7c-59,43.7-87.4,45.9-707.9,45.9h-644.6l-161.7-273.1c-87.4-150.8-159.5-286.2-161.7-299.3c0-21.9,159.5-28.4,692.6-32.8l692.6-6.5L8496-372.8l808.4-1033.5l-83-1151.5c-80.8-1131.8-85.2-1155.8-142-1273.8c-48.1-96.2-85.2-135.5-179.2-190.1l-118-72.1H5004.4H1226.5l-107.1,59c-118,63.3-225,203.2-246.9,319c-6.6,37.1-37.2,408.6-67.7,823.7s-67.7,919.9-83,1123.1l-28.4,369.3l187.9,253.4c102.7,139.9,445.7,605.2,762.6,1035.7l572.5,780h611.8c334.3,0,609.6,6.6,609.6,13.1c0,8.8-76.5,146.4-168.3,305.9l-170.4,292.8h-546.2C2080.9,1279,1997.8,1274.7,1936.7,1241.9z"/>
            <path d="M1906.1-1048c-257.8-428.3-469.8-788.8-474.1-797.5c-4.4-10.9,373.6-19.6,841.2-19.6c646.7,0,858.7-6.6,887.1-26.2c19.7-15.3,124.6-244.7,229.4-509.1l192.3-480.7h1418h1418.1l192.3,480.7c104.9,264.4,209.7,493.8,229.4,509.1c28.4,19.7,240.3,26.2,884.9,26.2c465.4,0,847.8,4.4,847.8,10.9s-212,364.9-474.2,797.5l-471.9,786.6l-950.5-4.4l-948.3-6.6L5603-499.5c-139.8-249.1-273.1-393.3-428.3-469.8c-91.8-45.9-139.8-54.6-316.8-54.6c-190.1,0-218.5,6.6-323.4,65.5c-155.1,85.2-273.1,220.7-417.3,478.5l-120.2,209.8h-812.8h-810.6L1906.1-1048z"/>
        </g>
    </g>
</svg>