<svg id="Capa_1" enable-background="new 0 0 512 512" height="512" viewBox="0 0 512 512" width="512" xmlns="http://www.w3.org/2000/svg"><g><g><path d="m509.744 277.421c-11.245-19.449-22.53-39.294-33.444-58.486-11.128-19.57-22.636-39.806-34.145-59.7-2.129-3.643-5.776-5.732-10.005-5.732h-136.96c-4.309 0-7.873 2.035-10.051 5.762l-28.41 49.117c-2.075 3.587-.849 8.177 2.739 10.253 3.588 2.074 8.178.85 10.253-2.739l27.409-47.385h133.053c11.132 19.262 22.28 38.867 33.071 57.843 10.777 18.951 21.916 38.538 33.032 57.777-21.152 36.558-42.306 73.095-63.457 109.628l-2.661 4.595h-133.024c-15.355-26.522-30.697-53.042-46.044-79.573l-20.458-35.362 21.673-37.443c2.076-3.587.851-8.177-2.736-10.254-3.584-2.073-8.177-.851-10.254 2.736l-22.683 39.187c-2.123 3.706-2.111 7.936.016 11.574l21.451 37.076c15.676 27.1 31.348 54.19 47.015 81.25 2.148 3.751 5.723 5.817 10.066 5.817h136.96c4.262 0 7.921-2.12 10.02-5.786l3.647-6.297c21.621-37.343 43.243-74.688 64.847-112.03 2.999-5.128.165-9.972-.92-11.828z"/><path d="m363.811 364.616c13.784 0 27.75-3.496 40.522-10.853 18.846-10.87 32.317-28.41 37.932-49.391 5.603-20.93 2.71-42.787-8.141-61.543-22.433-38.772-72.291-52.107-111.141-29.73-.002.001-.003.002-.004.002-18.851 10.874-32.322 28.419-37.932 49.403-5.595 20.93-2.693 42.784 8.17 61.532 15.053 26.019 42.454 40.58 70.594 40.58zm-64.265-98.236c4.573-17.104 15.556-31.407 30.927-40.276 31.695-18.255 72.363-7.382 90.66 24.24 8.843 15.284 11.199 33.093 6.634 50.146-4.578 17.104-15.563 31.406-30.928 40.269-10.421 6.002-21.807 8.855-33.056 8.854-22.947-.002-45.301-11.879-57.578-33.098-8.853-15.278-11.217-33.083-6.659-50.135z"/><path d="m206.12 152.762c11.022 0 19.989-8.954 19.989-19.96v-43.727c0-35.102-28.626-63.66-63.813-63.66h-98.511c-35.171 0-63.785 28.558-63.785 63.66v43.727c0 11.006 8.954 19.96 19.96 19.96h33.476v37.607l-15.517 2.347c-4.098.62-6.917 4.445-6.297 8.543.563 3.718 3.762 6.382 7.41 6.382.373 0 .752-.028 1.132-.085l13.271-2.008v29.963l-15.517 2.35c-4.098.62-6.917 4.445-6.296 8.543.563 3.717 3.762 6.382 7.409 6.382.374 0 .753-.028 1.133-.086l13.27-2.01v29.94l-15.517 2.347c-4.098.62-6.917 4.445-6.297 8.543.563 3.717 3.762 6.383 7.41 6.383.373 0 .752-.028 1.132-.085l13.271-2.008v29.966l-15.517 2.347c-4.098.62-6.917 4.445-6.297 8.543.563 3.718 3.762 6.383 7.41 6.383.373 0 .752-.028 1.132-.085l13.271-2.008v29.963l-15.517 2.35c-4.098.62-6.917 4.445-6.296 8.543.563 3.717 3.762 6.382 7.409 6.382.374 0 .753-.028 1.133-.086l13.27-2.01v23.874l-.001.314c-.011 3.311.629 5.131 2.718 7.763l50.081 63.588c2.475 3.144 6.288 4.947 10.459 4.947h.001c4.171 0 7.984-1.803 10.459-4.945l50.09-63.565c2.11-2.655 2.75-4.474 2.739-7.787v-43.357l8.18-1.239c4.098-.62 6.917-4.445 6.296-8.543-.62-4.099-4.461-6.915-8.543-6.296l-5.932.898v-29.939l8.179-1.237c4.098-.62 6.917-4.445 6.297-8.543s-4.45-6.914-8.543-6.297l-5.933.897v-29.965l8.179-1.237c4.098-.62 6.917-4.445 6.297-8.543-.62-4.099-4.45-6.914-8.543-6.297l-5.934.897v-29.965l8.18-1.239c4.098-.62 6.917-4.445 6.296-8.543-.62-4.098-4.461-6.914-8.543-6.296l-5.933.899v-29.939l8.179-1.237c4.098-.62 6.917-4.445 6.297-8.543-.62-4.097-4.45-6.91-8.543-6.297l-5.934.898v-18.463h26.144zm-41.148 256.635-48.277 61.266-48.251-61.265v-25.573l96.528-14.621zm0-55.372-96.528 14.621v-29.96l96.528-14.603zm0-45.121-96.528 14.602v-29.965l96.528-14.603zm0-45.146-96.528 14.602v-29.943l96.528-14.621zm0-45.141-96.528 14.621v-29.96l96.528-14.603zm0-45.121-96.528 14.602v-35.336h29.58c4.145 0 7.504-3.359 7.504-7.504s-3.359-7.504-7.504-7.504h-78.064c-2.684 0-4.952-2.268-4.952-4.952v-43.727c0-26.827 21.881-48.651 48.776-48.651h98.511c26.911 0 48.805 21.825 48.805 48.651v43.727c0 2.684-2.281 4.952-4.98 4.952h-71.353c-4.145 0-7.504 3.359-7.504 7.504s3.359 7.504 7.504 7.504h30.205z"/></g></g></svg>